# xmcd
#
# Track frame offsets:
#	150
#	37152
#	75514
#	95484
#	120614
#	146641
#	160851
#	162495
#	175406
#	193647
#	220486
#	255210
#	278692
#	302916
#	331043
#
# Disc length: 4522 seconds
#
# Revision: 1
# Processed by: cddbd v1.5.1PL0 Copyright (c) Steve Scherf et al.
# Submitted via: audiograbber 1.82.01
#
DISCID=d011a80f
DTITLE=Can - Can+Out of Reach
DYEAR=1900
DGENRE=Rock and Roll
TTITLE0=All Gates Open
TTITLE1=Safe
TTITLE2=Sunday Jam
TTITLE3=Sodom
TTITLE4=A Spectacle
TTITLE5=E.F.S. Nr. 99 ("CAN CAN")
TTITLE6=Ping-Pong
TTITLE7=Can Be
TTITLE8=Serpentine
TTITLE9=Pauper's Daughter and I
TTITLE10=November
TTITLE11=Seven Days Awake
TTITLE12=Give Me No "Roses"
TTITLE13=Like INOBE GOD
TTITLE14=One More Day
EXTD=
EXTT0=
EXTT1=
EXTT2=
EXTT3=
EXTT4=
EXTT5=
EXTT6=
EXTT7=
EXTT8=
EXTT9=
EXTT10=
EXTT11=
EXTT12=
EXTT13=
EXTT14=
PLAYORDER=
